<?xml version="1.0" encoding="iso-8859-1"?>
<!-- Uploaded to: SVG Repo, www.svgrepo.com, Generator: SVG Repo Mixer Tools -->
<!DOCTYPE svg PUBLIC "-//W3C//DTD SVG 1.1//EN" "http://www.w3.org/Graphics/SVG/1.1/DTD/svg11.dtd">
<svg fill="#000000" height="800px" width="800px" version="1.1" id="Capa_1" xmlns="http://www.w3.org/2000/svg" xmlns:xlink="http://www.w3.org/1999/xlink" 
	 viewBox="0 0 198.486 198.486" xml:space="preserve">
<path d="M73.714,121.345h50.898v44.167h-8.574v-33.912h-33.75v33.912h-8.574V121.345z M198.486,55.845l-31.833-22.871H99.289H31.924
	L0.091,55.845h99.198H198.486z M99.163,65.845h99.163v94.667c0,2.762-2.238,5-5,5h-58.714v-44.167h1.873c2.762,0,5-2.238,5-5
	s-2.238-5-5-5h-10.081c-0.437,0.125-0.889,0.213-1.366,0.213h-51.75c-0.477,0-0.929-0.088-1.366-0.213H61.841c-2.762,0-5,2.238-5,5
	s2.238,5,5,5h1.873v44.167H5c-2.762,0-5-2.238-5-5V65.845H99.163z M45.413,101.558V81.521h-26.75v20.037H45.413z M18.663,126.225
	v20.037h26.75v-20.037H18.663z M152.913,126.225v20.037h26.75v-20.037H152.913z M179.663,101.558V81.521h-26.75v20.037H179.663z
	 M78.288,81.521v20.037h41.75V81.521H78.288z"/>
</svg>