<?xml version="1.0" encoding="iso-8859-1"?>
<!-- Uploaded to: SVG Repo, www.svgrepo.com, Generator: SVG Repo Mixer Tools -->
<svg fill="#000000" version="1.1" id="Layer_1" xmlns="http://www.w3.org/2000/svg" xmlns:xlink="http://www.w3.org/1999/xlink" 
	 viewBox="0 0 512 512" xml:space="preserve">
<g>
	<g>
		<path d="M0,0v512h402.002V0H0z M371.585,481.583H30.417V30.417h341.168V481.583z"/>
	</g>
</g>
<g>
	<g>
		<path d="M474.744,41.496l-37.255,51.403v366.897H512V92.899L474.744,41.496z M467.906,102.763l6.838-9.435l6.839,9.435v275.917
			h-13.677V102.763z M481.583,429.379h-13.677v-20.281h13.677V429.379z"/>
	</g>
</g>
<g>
	<g>
		<rect x="138.145" y="78.557" width="125.704" height="30.417"/>
	</g>
</g>
<g>
	<g>
		<rect x="80.879" y="129.253" width="240.255" height="30.417"/>
	</g>
</g>
<g>
	<g>
		<rect x="80.879" y="179.958" width="240.255" height="30.417"/>
	</g>
</g>
<g>
	<g>
		<rect x="80.879" y="230.653" width="240.255" height="30.417"/>
	</g>
</g>
<g>
	<g>
		<rect x="80.879" y="352.332" width="240.255" height="30.417"/>
	</g>
</g>
<g>
	<g>
		<rect x="80.879" y="403.027" width="240.255" height="30.417"/>
	</g>
</g>
</svg>